<?xml version="1.0" encoding="UTF-8"?>
<svg xmlns="http://www.w3.org/2000/svg" xmlns:xlink="http://www.w3.org/1999/xlink" width="512px" height="512px" viewBox="0 0 512 512" version="1.1">
<g id="surface1">
<path style=" stroke:none;fill-rule:nonzero;fill:rgb(50.196078%,50.196078%,50.196078%);fill-opacity:1;" d="M 446.046875 163.273438 L 424.535156 121.589844 C 444.703125 103.179688 454.914062 83.75 452.898438 66.898438 C 451.617188 56.199219 445.203125 47.628906 435.296875 43.390625 C 422.515625 37.917969 405.769531 39.828125 387.304688 48.484375 C 371.195312 18.121094 354.953125 0 307.101562 0 L 204.898438 0 C 157.011719 0 140.796875 18.125 124.695312 48.484375 C 106.230469 39.832031 89.480469 37.921875 76.703125 43.390625 C 66.796875 47.632812 60.382812 56.199219 59.101562 66.898438 C 57.085938 83.753906 67.296875 103.183594 87.464844 121.589844 L 65.953125 163.273438 C 31.9375 229.183594 46.65625 270.605469 71.042969 339.230469 L 72.542969 343.453125 C 95.097656 406.976562 133.65625 447.308594 162.03125 469.960938 C 194.519531 495.890625 230.527344 512 256 512 C 281.472656 512 317.480469 495.890625 349.964844 469.960938 C 378.34375 447.308594 416.902344 406.976562 439.453125 343.453125 L 440.953125 339.226562 C 465.34375 270.605469 480.0625 229.183594 446.046875 163.273438 Z M 427.425781 61.777344 C 430.816406 63.226562 432.601562 65.609375 433.039062 69.273438 C 434.03125 77.558594 427.757812 92.636719 407.746094 109.742188 L 381.472656 74.65625 C 403.519531 60.269531 419.753906 58.492188 427.425781 61.777344 Z M 78.960938 69.273438 C 79.398438 65.609375 81.183594 63.226562 84.574219 61.777344 C 86.648438 60.890625 89.34375 60.371094 92.609375 60.371094 C 101.4375 60.371094 114.433594 64.152344 130.527344 74.65625 L 104.253906 109.742188 C 84.242188 92.636719 77.96875 77.558594 78.960938 69.273438 Z M 422.109375 332.53125 L 420.609375 336.761719 C 402.671875 387.28125 373.890625 421.988281 349.457031 444.132812 C 351.5 428.65625 352.140625 411.164062 351.25 397.40625 C 350.894531 391.894531 346.144531 387.738281 340.625 388.074219 C 335.113281 388.429688 330.933594 393.1875 331.292969 398.699219 C 332.875 423.128906 329.195312 452.433594 324.773438 463.796875 C 296.820312 483.191406 270.839844 492 256 492 C 241.160156 492 215.179688 483.191406 187.226562 463.800781 C 182.804688 452.433594 179.125 423.128906 180.707031 398.699219 C 181.066406 393.191406 176.886719 388.433594 171.375 388.074219 C 165.859375 387.726562 161.105469 391.898438 160.75 397.40625 C 159.859375 411.164062 160.5 428.65625 162.542969 444.136719 C 138.109375 421.988281 109.328125 387.285156 91.390625 336.761719 L 89.890625 332.53125 C 65.785156 264.703125 53.6875 230.652344 83.726562 172.445312 L 103.71875 133.710938 C 104.488281 133.894531 105.277344 133.992188 106.078125 133.992188 C 106.550781 133.992188 107.027344 133.960938 107.5 133.890625 C 110.125 133.515625 112.492188 132.109375 114.082031 129.984375 L 152.71875 78.386719 C 156.027344 73.964844 155.128906 67.699219 150.707031 64.390625 C 147.824219 62.230469 144.957031 60.21875 142.109375 58.34375 C 156.753906 30.675781 168.226562 20 204.898438 20 L 307.101562 20 C 343.746094 20 355.242188 30.679688 369.886719 58.34375 C 367.042969 60.21875 364.175781 62.230469 361.292969 64.390625 C 356.871094 67.699219 355.972656 73.964844 359.28125 78.386719 L 397.917969 129.984375 C 399.507812 132.109375 401.875 133.515625 404.5 133.890625 C 404.972656 133.960938 405.449219 133.992188 405.921875 133.992188 C 406.722656 133.992188 407.511719 133.898438 408.285156 133.710938 L 428.273438 172.445312 C 458.3125 230.652344 446.214844 264.699219 422.109375 332.53125 Z M 422.109375 332.53125 "/>
<path style=" stroke:none;fill-rule:nonzero;fill:rgb(50.196078%,50.196078%,50.196078%);fill-opacity:1;" d="M 375 216.027344 C 375 215.992188 375 215.957031 375 215.921875 C 376.269531 110.578125 336.855469 85.195312 317.917969 72.992188 C 303.640625 63.800781 291.871094 67.472656 280.492188 71.03125 C 273.300781 73.277344 265.863281 75.601562 256 75.601562 C 246.140625 75.601562 238.703125 73.277344 231.511719 71.03125 C 220.128906 67.472656 208.359375 63.796875 194.085938 72.992188 C 175.144531 85.195312 135.730469 110.578125 137 215.921875 C 137 215.957031 137.003906 215.992188 137.003906 216.027344 C 137.191406 224.320312 140.113281 231.523438 144.464844 238.105469 C 136.503906 264.257812 133.183594 286.378906 134.347656 305.65625 C 134.671875 310.964844 139.074219 315.054688 144.320312 315.054688 C 144.523438 315.054688 144.730469 315.046875 144.933594 315.035156 C 150.445312 314.703125 154.644531 309.964844 154.3125 304.449219 C 153.484375 290.757812 155.460938 274.539062 160.175781 256.105469 C 161.316406 257.222656 162.464844 258.335938 163.609375 259.445312 C 173.019531 268.566406 182.730469 277.996094 185.757812 288.300781 C 187.347656 303.257812 192.792969 316.222656 200.054688 324.152344 C 197.847656 338.054688 200.148438 349.40625 206.9375 357.933594 C 216.03125 369.351562 232.082031 374.902344 256.003906 374.902344 C 279.914062 374.902344 295.957031 369.355469 305.054688 357.949219 C 311.855469 349.417969 314.15625 338.0625 311.945312 324.15625 C 319.210938 316.226562 324.65625 303.257812 326.246094 288.300781 C 329.273438 277.996094 338.984375 268.566406 348.394531 259.445312 C 349.539062 258.335938 350.6875 257.222656 351.828125 256.105469 C 356.546875 274.539062 358.519531 290.761719 357.691406 304.453125 C 357.359375 309.964844 361.558594 314.703125 367.070312 315.035156 C 367.273438 315.050781 367.480469 315.054688 367.683594 315.054688 C 372.929688 315.054688 377.335938 310.964844 377.65625 305.65625 C 378.820312 286.378906 375.503906 264.257812 367.539062 238.105469 C 371.886719 231.523438 374.808594 224.320312 375 216.027344 Z M 289.414062 345.480469 C 284.5 351.644531 272.945312 354.902344 256 354.902344 C 239.050781 354.902344 227.492188 351.640625 222.582031 345.472656 C 220.078125 342.328125 218.96875 337.992188 219.238281 332.347656 C 236.539062 331.660156 248.355469 324.410156 256 317.988281 C 263.644531 324.410156 275.429688 331.648438 292.761719 332.335938 C 293.03125 337.992188 291.921875 342.332031 289.414062 345.480469 Z M 334.472656 245.085938 C 331.910156 247.570312 329.265625 250.136719 326.664062 252.808594 C 324.238281 226.007812 315.464844 210.90625 309.070312 199.925781 C 305.203125 193.28125 303.199219 189.675781 303.539062 186.605469 C 304.546875 177.542969 306.734375 176.972656 318.179688 175.480469 C 319.363281 175.328125 320.558594 175.171875 321.75 174.996094 C 327.214844 174.195312 330.996094 169.117188 330.195312 163.652344 C 329.394531 158.1875 324.3125 154.398438 318.855469 155.207031 C 317.765625 155.367188 316.675781 155.507812 315.59375 155.648438 C 304.6875 157.070312 286.433594 159.453125 283.664062 184.398438 C 282.578125 194.171875 287.050781 201.855469 291.785156 209.992188 C 299.675781 223.539062 310.476562 242.09375 306.445312 285.375 C 304.953125 301.386719 298.113281 310.917969 295.339844 312.402344 C 280.734375 312.371094 271.796875 305.578125 266 300.097656 L 266 280.070312 C 270.101562 279.589844 274.167969 278.820312 278.164062 277.75 C 283.5 276.320312 286.667969 270.839844 285.238281 265.503906 C 283.8125 260.167969 278.328125 257 272.992188 258.429688 C 261.90625 261.398438 250.089844 261.398438 239.007812 258.429688 C 233.675781 257.007812 228.1875 260.167969 226.761719 265.503906 C 225.332031 270.839844 228.496094 276.320312 233.832031 277.75 C 237.828125 278.820312 241.898438 279.585938 246 280.070312 L 246 300.097656 C 240.203125 305.578125 231.265625 312.371094 216.660156 312.402344 C 213.886719 310.917969 207.046875 301.386719 205.554688 285.375 C 201.519531 242.09375 212.324219 223.539062 220.210938 209.992188 C 224.949219 201.855469 229.421875 194.175781 228.335938 184.398438 C 225.566406 159.453125 207.3125 157.070312 196.40625 155.648438 C 195.324219 155.507812 194.234375 155.367188 193.144531 155.207031 C 187.683594 154.402344 182.601562 158.1875 181.800781 163.652344 C 181.003906 169.117188 184.785156 174.195312 190.25 174.996094 C 191.441406 175.171875 192.632812 175.328125 193.816406 175.480469 C 205.265625 176.972656 207.449219 177.542969 208.457031 186.605469 C 208.800781 189.675781 206.796875 193.285156 202.929688 199.925781 C 196.535156 210.902344 187.761719 226.007812 185.335938 252.804688 C 182.730469 250.136719 180.089844 247.570312 177.523438 245.082031 C 167.097656 234.976562 157.25 225.433594 156.996094 215.617188 C 155.878906 121.398438 188.996094 100.058594 204.914062 89.808594 C 211.015625 85.875 214.980469 86.820312 225.546875 90.121094 C 233.359375 92.5625 243.089844 95.601562 256 95.601562 C 268.914062 95.601562 278.640625 92.5625 286.453125 90.121094 C 297.019531 86.820312 300.984375 85.878906 307.085938 89.808594 C 323.003906 100.058594 356.121094 121.398438 355.003906 215.617188 C 354.75 225.433594 344.902344 234.980469 334.472656 245.085938 Z M 334.472656 245.085938 "/>
<path style=" stroke:none;fill-rule:nonzero;fill:rgb(50.196078%,50.196078%,50.196078%);fill-opacity:1;" d="M 145.589844 340.195312 L 145.582031 340.195312 C 140.058594 340.195312 135.585938 344.671875 135.585938 350.195312 C 135.585938 355.714844 140.066406 360.195312 145.589844 360.195312 C 151.109375 360.195312 155.589844 355.714844 155.589844 350.195312 C 155.589844 344.671875 151.109375 340.195312 145.589844 340.195312 Z M 145.589844 340.195312 "/>
</g>
</svg>
